<?xml version="1.0" encoding="utf-8"?>
<!-- Generator: Adobe Illustrator 15.0.2, SVG Export Plug-In . SVG Version: 6.00 Build 0)  -->
<!DOCTYPE svg PUBLIC "-//W3C//DTD SVG 1.1//EN" "http://www.w3.org/Graphics/SVG/1.1/DTD/svg11.dtd">
<svg version="1.1" id="layer_x5F_www.ABC-color.com"
	 xmlns="http://www.w3.org/2000/svg" xmlns:xlink="http://www.w3.org/1999/xlink" x="0px" y="0px" width="822px" height="567px"
	 viewBox="0 0 822 567" enable-background="new 0 0 822 567" xml:space="preserve">
<rect x="0" fill="#FFFFFF" width="822" height="567"/>
<polyline fill="none" stroke="#000000" points="16.4,539.9 17.7,547.9 19.6,540 21.4,547.9 22.8,539.9 "/>
<polyline fill="none" stroke="#000000" points="24.2,540 25.5,547.8 27.3,539.9 28.8,547.8 30.5,539.9 "/>
<polyline fill="none" stroke="#000000" points="31.8,539.9 33.1,547.6 34.9,539.9 36.5,547.6 37.9,539.9 "/>
<line fill="none" stroke="#000000" x1="51.4" y1="536.6" x2="51.4" y2="548.2"/>
<line fill="none" stroke="#000000" x1="62.1" y1="544" x2="64" y2="544"/>
<polyline fill="none" stroke="#000000" points="77.4,536.5 77.4,548.3 80.2,548.3 "/>
<path fill="none" stroke="#000000" d="M69.4,546.8c-0.3,0.8-0.899,1.3-1.399,1.3c-1.101,0-1.9-1.8-1.9-4c0-2.199,0.9-4,1.9-4
	c0.7,0,1.2,0.7,1.6,1.7"/>
<path fill="none" stroke="#000000" d="M72.5,548.3c-0.9,0-1.7-1.899-1.7-3.8c0-2.2,0.9-4,1.9-4s1.899,1.8,1.899,4
	s-0.6,3.7-1.399,3.7"/>
<path fill="none" stroke="#000000" d="M60.3,546.6c-0.4,0.801-0.9,1.301-1.4,1.301c-1.1,0-1.899-1.801-1.899-4
	c0-2.2,0.899-4,1.899-4c0.7,0,1.2,0.699,1.601,1.699"/>
<path fill="none" stroke="#000000" d="M51.4,541.8c0.301-0.6,1.301-0.6,1.801-0.6c0.699,0,1.699,1,1.699,3.3c0,1.3,0,2.3-0.899,2.9
	c-0.2,0.199-0.8,0.399-1.101,0.399"/>
<path fill="none" stroke="#000000" stroke-width="1.0581" d="M45.1,540.5c0,0,3.601-3.2,3.3,2.4c0,0-0.1,3.5,0.101,4.399
	c0.1,0.4,0.899,0.4,0.899,0.4"/>
<path fill="none" stroke="#000000" d="M40.9,547.9c0.7,0,0.7-1.101,0-1.101C40.2,546.8,40.2,547.9,40.9,547.9L40.9,547.9z"/>
<path fill="none" stroke="#000000" d="M82.2,548.5c-0.801,0-1.2-2.2-1.2-4c0-2.2,0.899-4,1.899-4s1.9,1.8,1.9,4s-0.9,4-1.9,4"/>
<line fill="none" stroke="#000000" x1="86.7" y1="539.9" x2="86.7" y2="548.7"/>
<path fill="none" stroke="#000000" d="M90.1,541.1c0,0-2.2-2.3-3.399,1.4"/>
<line fill="none" stroke="#000000" x1="107.9" y1="540.3" x2="107.9" y2="548.8"/>
<path fill="none" stroke="#000000" d="M111.6,548.8v-6c0,0-1.5-3.899-3.7,0"/>
<path fill="none" stroke="#000000" d="M115,548.8v-6.1c0,0-1-3.601-3.5-0.2"/>
<path fill="none" stroke="#000000" d="M99.3,546.9c-0.3,0.8-0.9,1.3-1.4,1.3c-1.1,0-1.899-1.8-1.899-4s0.899-4,1.899-4
	c0.7,0,1.2,0.7,1.601,1.7"/>
<path fill="none" stroke="#000000" d="M102.9,548.1c-1.1-0.5-2.199-7.699,0.9-7.899c1.1-0.101,1.9,1.8,1.9,4s-0.9,4-1.9,4"/>
<path fill="none" stroke="#000000" d="M92.4,548.6c0.7,0,0.7-1.1,0-1.1C91.7,547.5,91.7,548.6,92.4,548.6L92.4,548.6z"/>
<path fill="none" stroke="#000000" d="M48.4,544.4c-0.3-0.601-0.6-1.4-1.699-1.4c-0.7,0-1.601,0.1-1.601,2.4c0,1.3,0.5,1.8,0.9,2
	c0.2,0.1,0.8,0.399,1.1,0.399"/>
<path fill="#FFFFFF" stroke="#000000" stroke-miterlimit="10" d="M794.6,383.3c0.4-0.6,1.2-0.6,2.1-0.3c0,0,2,8.5-2.8,13.4
	c0,0-2.1-0.9-2.2-2C791.3,391.1,793.3,385.3,794.6,383.3z"/>
<path fill="#FFFFFF" stroke="#000000" stroke-miterlimit="10" d="M794.6,192.7c-1.3-2-3.3-7.8-2.8-11.1c0.1-0.9,2.2-2,2.2-2
	s4.5,5.7,3,13.3C796,193.3,795,193.4,794.6,192.7z"/>
<path fill="#FFFFFF" stroke="#000000" stroke-miterlimit="10" d="M795.5,286.7v2.5c0,12.3-1.2,33.7-1.2,33.7l-4,1.699v-0.1
	c0,0,0.899-25.4,0.899-35.7v-2c0-10.2-0.899-35.5-0.899-35.5l0.1-0.2l3.9,1.7C794.3,253,795.5,274.4,795.5,286.7z"/>
<path fill="#FFFFFF" stroke="#000000" stroke-miterlimit="10" d="M795.5,289.3v-2.5c0-12.3-1.2-33.7-1.2-33.7
	c0.3-1.8-4.8-32.1-5.5-35.8c0-0.1,0-0.2,0-0.3s0-0.1,0-0.1c-1.3-8-6.101-45-20.2-65.3c-0.8-1.1-1.6-2.2-2.4-3.3
	c-11.6-14.2-23.399-19-30.6-20.5c0.2-2.1-4-5.8-4-5.8s32.3,1.5,46,22.3c13.8,20.8,16.6,34.9,16.6,34.9l0.101,0.4
	c-0.101,0-0.2,0-0.2,0s-2.101,1.1-2.2,2c-0.5,3.3,1.5,9.2,2.8,11.1c0.4,0.7,1.4,0.6,2.4,0.2v0.1l5.8,32l-0.9,6.3
	c0,0,2.7,40.2,3,56.7c0,0.9,0,1.9,0,2.9c0,17.8-3,53.699-3,53.699l0.9,6.301l-6.1,32c-0.9-0.301-1.7-0.301-2.101,0.3
	c-1.3,2-3.3,7.8-2.8,11.1c0.1,1.101,2.2,2,2.2,2c0.1,0,0.2,0,0.3,0.101l-0.2,0.5c0,0-2.8,14-16.6,34.8c-13.7,20.899-46,22.3-46,22.3
	l3.2-5.6c7.2-1.2,19.399-6,31.399-20.7c0.801-1,1.7-2.101,2.4-3.3c14.1-20.4,18.9-57.4,20.2-65.301c2.3-3.399,5.5-36.1,5.5-36.1
	S795.5,301.6,795.5,289.3z"/>
<path fill="#FFFFFF" stroke="#000000" stroke-miterlimit="10" d="M788.9,217.3c0-0.1,0-0.2,0-0.3
	C788.8,217.1,788.8,217.2,788.9,217.3z"/>
<path fill="#FFFFFF" stroke="#000000" stroke-miterlimit="10" d="M788.8,217L788.8,217C788.8,216.9,788.8,217,788.8,217z"/>
<path fill="#FFFFFF" stroke="#000000" stroke-miterlimit="10" d="M784.6,344c0,0,5.8,6.6,4.3,15c-1.3,8-6.1,45-20.2,65.3l-0.5-0.3
	l-10.399-0.4c2.699-3.399,5-7.199,7.3-12.1C770.5,399.4,773.699,396.5,784.6,344z"/>
<path fill="#FFFFFF" stroke="#000000" stroke-miterlimit="10" d="M788.9,217.3c1.3,8.3-4.3,14.8-4.3,14.8
	c-10.8-52.7-14-55.5-19.6-67.7c-2.301-4.9-4.601-8.7-7.4-12.1l10.5-0.4l0.5-0.4c14.1,20.4,18.9,57.4,20.2,65.3v0.1
	C788.8,217.1,788.9,217.2,788.9,217.3z"/>
<path fill="#FFFFFF" stroke="#000000" stroke-miterlimit="10" d="M729.8,448.5c0,0-0.601-2.9,11.3-10.7
	c7.2-4.8,12.4-8.899,16.5-14.1L768,424.1l0.5,0.301c-0.801,1.1-1.601,2.199-2.4,3.3c-12,14.7-24.2,19.5-31.4,20.7
	c-2.3,0.399-4.1,0.5-5.2,0.3L729.8,448.5z"/>
<path fill="#FFFFFF" stroke="#000000" stroke-miterlimit="10" d="M729.6,127.3c1.2-0.1,3.3,0,5.9,0.5c7.3,1.5,19,6.3,30.6,20.5
	c0.8,1,1.7,2.1,2.4,3.3L768,152l-10.5,0.4c-4.101-5.1-9.301-9.1-16.4-13.9c-12-8-11.3-10.8-11.3-10.8L729.6,127.3z"/>
<path id="www.ABC-color.com" fill="#FFFFFF" stroke="#000000" stroke-miterlimit="10" d="M460.4,403c9.4,4.1,74.4,31,102.3,30.1
	c0,0,18.7-27.699,23.301-50c2.5-11.6,11-45.699,11.199-88.8v-12.6c-0.3-43.2-8.8-77.3-11.199-88.8
	c-4.601-22.4-23.301-50.1-23.301-50.1C534.8,142,469.8,168.8,460.4,173c-9.3,4.1-4.899,13.9-4.899,13.9
	c10.8,28.1,11.6,95.5,11.6,95.5v11.1c0,0-0.8,67.8-11.6,96.1C455.5,389.8,451.199,398.8,460.4,403z M611.4,285.8v4.4
	c0,37.899-9.8,93.1-14.399,104.5c-7,16.8-12,25.7-12,25.7S574.699,437.6,554.4,437.9c-20.5,0.199-87.3-27.4-97.3-31.7
	c-6.6-2.9-7-8.4-6.5-11.8c0.3-1.7,0.7-2.9,0.7-2.9c11.6-30.1,12.899-102,12.899-102v-2.8c0,0-1.3-71.8-12.899-101.9
	c0,0-0.5-1.3-0.7-3.1c-0.4-3.4,0.1-8.9,6.5-11.8c10-4.4,76.8-31.9,97.3-31.6c20.3,0.1,30.601,17.3,30.601,17.3s5,8.9,12,25.7
	C601.6,192.7,611.4,247.9,611.4,285.8z"/>
<path fill="#FFFFFF" stroke="#000000" stroke-miterlimit="10" d="M562.8,142.9c0,0,18.7,27.7,23.3,50.1c2.5,11.4,11,45.6,11.2,88.8
	V294.4c-0.3,43-8.8,77.199-11.2,88.8c-4.6,22.3-23.3,50-23.3,50c-27.9,0.899-92.9-26-102.3-30.101c-9.301-4.199-4.9-13.3-4.9-13.3
	c10.8-28.3,11.6-96.1,11.6-96.1v-11.1c0,0-0.8-67.4-11.6-95.5c0,0-4.3-9.8,4.9-13.9C469.8,168.9,534.8,142.1,562.8,142.9z"/>
<path fill="#FFFFFF" stroke="#000000" stroke-miterlimit="10" d="M523.5,128c0,0,0.5,0.8-0.101,1.6l-0.1-0.2c0,0-0.5,0.6-1.8,1.1
	l0,0c-1.5,0.3-4.101,0.3-8.4-0.5c0,0-3.7-0.3-4.9-4.7c-0.399-1.4-1.3-5.5-2.399-10.5c-2.3-10.7-5.4-25.4-5.4-25.4s6.2-3,9.9,2.9
	c2.899,4.5,6.399,11.2,9.7,22.6C521.3,118.6,522.4,123,523.5,128z"/>
<path fill="#FFFFFF" stroke="#000000" stroke-miterlimit="10" d="M523.4,446.5c0.601,0.7,0.101,1.5,0.101,1.5
	c-1.101,5-2.2,9.4-3.4,13.2c-3.4,11.399-6.9,18.1-9.8,22.6c-3.7,6-9.9,2.9-9.9,2.9s3.101-14.7,5.4-25.4c1.1-5,2-9.1,2.399-10.399
	c1.2-4.5,4.9-4.7,4.9-4.7c4.5-0.8,7.1-0.9,8.6-0.601l0,0c1.101,0.5,1.5,1,1.5,1L523.4,446.5z"/>
<path fill="#FFFFFF" stroke="#000000" stroke-miterlimit="10" d="M514.4,439.9c1,0,2.2-0.101,3.3-0.2c1,0.1,2,0.3,3.101,0.5
	c0.899,0.1,1.6,0.3,2.2,0.6c0.899,0.5,1.8,1.4,2.3,2.601l-1.9,3.1c-0.3-0.3-0.8-0.6-1.7-0.8l0,0c-1.5-0.601-4.2-1-8.6,0.6
	C513.1,446.2,510.9,440.2,514.4,439.9z"/>
<path fill="#FFFFFF" stroke="#000000" stroke-miterlimit="10" d="M514.4,136.1c-3.5-0.3-1.3-6.2-1.3-6.2c4.2,1.4,6.8,1.1,8.4,0.5
	l0,0c1-0.2,1.6-0.5,1.899-0.9l1.9,3.2c-0.5,1-1.2,1.8-2,2.3c-0.601,0.3-1.4,0.5-2.5,0.7c-1.2,0.2-2.4,0.4-3.4,0.5
	C516.3,136.3,515.3,136.2,514.4,136.1z"/>
<path fill="#FFFFFF" stroke="#000000" stroke-miterlimit="10" d="M512.199,133.6c0,2.9,2.2,3.1,5.2,2.8c2.101,0.1,4.2-0.1,5.9-1.2
	c2.1-0.9,2-2.3,2-2.3l4.399,1.8c-3.3,2.8-23.3,10.6-23.899,10.8l1.7-4.5C509.5,137,512.199,133.6,512.199,133.6z"/>
<path fill="#FFFFFF" stroke="#000000" stroke-miterlimit="10" d="M371.1,177.8c0.5-12.6,17.1-39,17.1-39s0.101,0,0.301,0
	c42.199,0,120-0.4,120-0.4l-1,2.6c-0.7,1.5-1.4,3-1.7,4.5c0,0-39.101,16.5-58.8,22.6C427.199,174,371.1,177.8,371.1,177.8z"/>
<path fill="#FFFFFF" stroke="#000000" stroke-miterlimit="10" d="M512.199,442.6c0,0-2.699-3.399-4.6-7.3c0,0,0,0,0-0.1l-1.8-4.601
	c0.6,0.2,20.6,8.2,23.899,11L525.3,443.4c0,0,0.2-1.601-2.3-2.601c-1.5-0.899-3.4-1.1-5.301-1
	C514.5,439.3,512.199,439.6,512.199,442.6z"/>
<path fill="#FFFFFF" stroke="#000000" stroke-miterlimit="10" d="M446.9,408c19.7,6,58.8,22.6,58.8,22.6c0.4,1.5,1,3.101,1.8,4.601
	c0,0,0,0,0,0.1l0.9,2.3c-2.6-0.199-20.2-0.5-119.9-0.199c-0.1-0.2-0.3-0.2-0.3-0.2s-16.6-26.3-17.1-39
	C371.1,398.2,427.199,402,446.9,408z"/>
<path fill="#FFFFFF" stroke="#000000" stroke-miterlimit="10" d="M284.2,192.7c46.999,1.3,134.8,0.1,165.899-11l0.4-0.1
	c0.199,1.8,0.699,3.1,0.699,3.1C462.8,214.8,464.1,286.6,464.1,286.6v2.801c0,0-1.3,71.899-12.9,102c0,0-0.5,1.199-0.699,2.899
	l-0.4-0.1c-31.1-11-118.9-12.3-165.899-11c-22.801,0.8-38.4,3.2-38.4,3.2c-0.6-3.601-4-23.801-5.5-56.9c-1.2-22.4-0.6-40.6-0.6-40.6
	v-2c0,0-0.5-18.2,0.6-40.601c1.5-33.1,4.9-53.3,5.5-56.9C245.9,189.5,261.4,192.1,284.2,192.7z"/>
<path fill="#FFFFFF" stroke="#000000" stroke-miterlimit="10" d="M420.3,119.6c1,0,1.8,1.1,1.8,2.3c0,1.2-0.8,2.3-1.8,2.3h-27.8
	c-0.9,0-1.7-1.1-1.7-2.3c0-0.6,0.2-1.2,0.5-1.6c0.3-0.4,0.7-0.7,1.2-0.7H420.3z"/>
<path id="ABC-color.com" fill="#FFFFFF" stroke="#000000" stroke-miterlimit="10" d="M422.1,454.2c0,1.2-0.8,2.3-1.8,2.3h-27.8
	c-0.5,0-0.9-0.3-1.2-0.7c-0.3-0.399-0.5-1-0.5-1.6c0-1.2,0.8-2.101,1.7-2.101h27.8C421.3,452.1,422.1,453,422.1,454.2z"/>
<path fill="#FFFFFF" stroke="#000000" stroke-miterlimit="10" d="M386.8,137.2c2.8,1.6,1.399,1.6,1.399,1.6s-16.6,26.3-17.1,39
	l-17.601,0.6v-0.1c0-0.1,0-0.1,0-0.2c0.101-0.6,0.4-1.9,0.7-3.6c0.101-0.4,0.2-0.7,0.2-1.1c0,0,0,0,0-0.1c0.101-0.3,0.101-0.7,0.2-1
	c0.1-0.4,0.1-0.8,0.2-1.2c2.1-10.4,5.899-28.6,6.899-32.2c0-0.1,0-0.1,0.101-0.2c0-0.1,0.1-0.2,0.1-0.3c0,0-0.5-2.9,4.3-2.9
	C371.1,135.5,384,135.5,386.8,137.2z"/>
<path fill="#FFFFFF" stroke="#000000" stroke-miterlimit="10" d="M353.5,178.4c-31.801-0.2-58.8-0.2-92.8-7.8
	c-3.601-5.4-12.101-17.2-26.4-29.3c23.7-0.8,121.6-3.5,127.7-2.9c0,0.1-0.101,0.2-0.101,0.3c0,0.1,0,0.1-0.1,0.2
	c-1.101,3.6-4.8,21.8-6.9,32.2c-0.1,0.4-0.2,0.8-0.2,1.2c-0.1,0.3-0.1,0.7-0.2,1c0,0,0,0,0,0.1c-0.1,0.4-0.199,0.8-0.199,1.1
	c-0.301,1.7-0.601,3-0.7,3.6c0,0.1,0,0.2,0,0.2C353.5,178.3,353.5,178.4,353.5,178.4z"/>
<path fill="#FFFFFF" stroke="#000000" stroke-miterlimit="10" d="M361.8,437c0.1,0.3,0.2,0.5,0.2,0.6c-6,0.601-104-2.1-127.7-2.699
	c14.3-12.301,22.8-24.101,26.4-29.5c34-7.5,60.999-7.7,92.8-7.801v0.101c0,0.1,0,0.2,0.1,0.3l0,0c0,0.1,0,0.1,0,0.2
	c0,0.1,0,0.2,0.1,0.3c0,0.1,0,0.2,0.101,0.4c0,0.1,0,0.199,0.1,0.399c0,0.101,0,0.2,0.101,0.3c0,0.2,0.1,0.4,0.1,0.7
	c0,0.101,0,0.2,0.1,0.3c0.101,0.5,0.2,1.101,0.301,1.7l0,0c0.199,0.8,0.3,1.601,0.5,2.601c0.399,1.899,0.8,4.1,1.3,6.399
	c0.1,0.3,0.1,0.601,0.2,0.9c0.1,0.6,0.199,1.2,0.399,1.8s0.3,1.2,0.4,1.8c1.8,8.601,3.7,17.8,4.6,21
	C361.699,436.7,361.699,436.9,361.8,437z"/>
<path fill="#FFFFFF" stroke="#000000" stroke-miterlimit="10" d="M353.5,397.6l17.6,0.601c0.5,12.6,17.1,39,17.1,39
	s0.101,0,0.301,0.2c0,0,0,0,0.1,0c0.1,0.199-0.2,0.6-1.8,1.5c-2.8,1.699-15.7,1.699-20.601,1.699c-4.8,0-4.3-2.899-4.3-2.899
	c0-0.101-0.1-0.4-0.2-0.601c0-0.1-0.1-0.199-0.1-0.399c-0.8-3.2-2.8-12.4-4.6-21c-0.101-0.601-0.301-1.2-0.4-1.8s-0.2-1.2-0.4-1.801
	c-0.1-0.299-0.1-0.6-0.199-0.899c-0.5-2.3-0.9-4.5-1.301-6.399c-0.199-0.9-0.399-1.801-0.5-2.601l0,0c-0.1-0.601-0.199-1.2-0.3-1.7
	c0-0.1,0-0.2-0.1-0.3c0-0.2-0.101-0.5-0.101-0.7c0-0.1,0-0.2-0.1-0.3c0-0.101,0-0.3-0.1-0.399c0-0.101,0-0.201-0.101-0.4
	c0-0.1,0-0.2-0.1-0.301c0-0.1,0-0.199,0-0.199l0,0c0-0.1,0-0.2-0.101-0.301C353.5,397.7,353.5,397.6,353.5,397.6z"/>
<path fill="#FFFFFF" stroke="#000000" stroke-miterlimit="10" d="M260.1,122c1,0,1.8,0.9,1.8,2.3c0,1.2-0.8,2.1-1.8,2.1h-27.7
	c-1,0-1.8-0.9-1.8-2.1c0-0.7,0.2-1.3,0.5-1.6c0.3-0.4,0.8-0.6,1.3-0.6h27.7V122z"/>
<path fill="#FFFFFF" stroke="#000000" stroke-miterlimit="10" d="M260.1,449.7c1,0,1.8,1.1,1.8,2.3s-0.8,2.1-1.8,2.1h-27.7
	c-0.5,0-1-0.199-1.3-0.6s-0.5-0.9-0.5-1.5c0-1.2,0.8-2.3,1.8-2.3H260.1z"/>
<path fill="#FFFFFF" stroke="#000000" stroke-miterlimit="10" d="M256.1,406.3C241.7,427.6,236.3,428,228.4,434.9
	C224.2,435,202.7,434.1,197.1,434c-5.899-0.3-12.399-3.2-12.399-3.2c8.6-7.1,31.899-12.8,31.899-12.8
	C231.2,413.1,244,409.2,256.1,406.3z"/>
<path fill="#FFFFFF" stroke="#000000" stroke-miterlimit="10" d="M236.3,179.8c8.9,2.4,10.2,6.2,9.5,9.8c-0.6,3.6-4,23.8-5.5,56.9
	c-1.2,22.4-0.6,40.6-0.6,40.6v2c0,0-0.5,18.2,0.6,40.601c1.5,33.1,4.9,53.3,5.5,56.899c0.6,3.601-0.6,7.5-9.5,9.9
	c-9.8,2.6-84.5,21.8-100.5,19.3c-16.1-2.7-20.5-11.899-23.9-18.8c-3.3-7-10.399-29.5-10.8-108.8c0.4-79.2,7.5-101.8,10.8-108.8
	c3.5-6.9,7.9-16.1,23.9-18.7C151.9,157.8,226.5,177,236.3,179.8z M114.7,394.7C117.9,401.3,122.1,412,137.6,412.6
	c16.101,0.7,89.5-17.1,99-19.6c7.2-1.8,5.9-7.1,5.9-7.1s-3.7-23.801-5.3-55.301c-1-21.5-0.9-36-0.9-36L236,285
	c0,0,0.2-18.1,1.2-39.6c1.5-31.4,5-54.1,5-54.1s2.699-6.1-5.7-8.3c-9.4-2.6-83.2-19.9-98.601-18.3c-15.399,1.7-20.1,10-23.3,16.6
	c-3.1,6.8-9.899,28.4-10.3,104.601v4.399C104.8,366.5,111.6,388.1,114.7,394.7z"/>
<path fill="#FFFFFF" stroke="#000000" stroke-miterlimit="10" d="M256.1,169.7c-12.1-2.9-25-6.6-39.399-11.7
	c0,0-23.301-5.7-31.9-12.8c0,0,6.4-2.9,12.4-3c5.5-0.3,27-1.2,31.3-0.9C233.2,144.6,245.7,154.2,256.1,169.7z"/>
<path fill="#FFFFFF" stroke="#000000" stroke-miterlimit="10" d="M138,164.7c15.399-1.7,89.2,15.7,98.6,18.3
	c8.4,2.3,5.7,8.3,5.7,8.3s-3.5,22.7-5,54.1c-1,21.5-1.2,39.6-1.2,39.6l0.3,9.7c0,0-0.1,14.5,0.9,36c1.5,31.6,5.3,55.3,5.3,55.3
	s1.3,5.3-5.899,7.1c-9.4,2.4-82.9,20.2-99,19.601c-15.5-0.7-19.7-11.3-22.9-17.9c-3.1-6.6-9.9-28.3-10.3-104.5V285.9
	c0.399-76.101,7.2-97.8,10.3-104.601C117.9,174.6,122.6,166.4,138,164.7z"/>
<path fill="#FFFFFF" stroke="#000000" stroke-miterlimit="10" d="M234.3,141.3c14.3,12.2,22.8,23.9,26.4,29.3
	c-1.5-0.3-3-0.6-4.5-0.9c-10.4-15.5-22.9-25.1-27.7-28.4c0.399,0,0.6,0,0.8,0C229.3,141.3,231,141.3,234.3,141.3z"/>
<path fill="#FFFFFF" stroke="#000000" stroke-miterlimit="10" d="M392.5,456.4h27.8c1,0,1.8-1.101,1.8-2.301
	c0-1.199-0.8-2.1-1.8-2.1h-27.8c-0.9,0-1.7,0.9-1.7,2.1c0,0.601,0.2,1.2,0.5,1.601C391.6,456.1,392,456.4,392.5,456.4z M231.2,453.4
	c0.3,0.399,0.8,0.6,1.3,0.6h27.7c1,0,1.8-0.9,1.8-2.1c0-1.2-0.8-2.301-1.8-2.301h-27.7c-1,0-1.8,1.101-1.8,2.301
	C230.7,452.5,230.9,453,231.2,453.4z M390.8,121.8c0,1.2,0.8,2.3,1.7,2.3h27.8c1,0,1.8-1.1,1.8-2.3c0-1.2-0.8-2.3-1.8-2.3h-27.8
	c-0.5,0-0.9,0.3-1.2,0.7C391,120.7,390.8,121.2,390.8,121.8z M155.6,136.1c8.4-1.2,8-3.5,8-3.5s0-2.7,0-5.6s-5.1-2.7-5.1-2.7
	c-12.101,0.1-20.601,2.4-21.101,3.3c-0.399,1-0.3,1.6-0.3,4.8c0,3.3,4.5,4.1,4.5,4.1S147.3,137.2,155.6,136.1z M101,288
	c0.399,79.4,7.5,101.8,10.8,108.8c3.5,6.9,7.9,16.101,23.9,18.8c16.1,2.5,90.8-16.699,100.5-19.3c8.899-2.399,10.199-6.3,9.5-9.899
	c0,0,15.6-2.4,38.399-3.2c47-1.3,134.8,0,165.9,11l0.399,0.1c-0.5,3.4,0,8.9,6.5,11.8c10,4.4,76.8,31.9,97.3,31.7
	c20.301-0.3,30.601-17.5,30.601-17.5s5-8.899,12-25.7c4.6-11.399,14.399-66.6,14.399-104.5V285.7c0-37.9-9.8-93.1-14.399-104.6
	c-7-16.9-12-25.7-12-25.7s-10.3-17.1-30.601-17.3c-20.5-0.3-87.3,27.2-97.3,31.6c-6.5,2.9-7,8.4-6.5,11.8L450,181.6
	c-31.101,11.1-118.9,12.3-165.9,11c-22.8-0.6-38.399-3.2-38.399-3.2c0.6-3.6-0.601-7.4-9.5-9.8c-9.801-2.7-84.5-22-100.5-19.3
	c-16.101,2.6-20.5,11.7-23.9,18.7C108.5,186.2,101.5,208.8,101,288z M234.3,434.9c23.7,0.6,121.6,3.3,127.7,2.699
	c0,0-0.5,2.9,4.3,2.9c4.899,0,17.8,0,20.6-1.7c1.601-0.899,1.8-1.3,1.8-1.5c99.7-0.3,117.301,0,119.9,0.2v0.1c0,0,0.8,0,0-0.1
	l-0.9-2.3c2,3.899,4.601,7.3,4.601,7.3c0-3,2.399-3.3,5.5-2.9c-1.2,0-2.3,0.101-3.3,0.2c-3.5,0.3-1.301,6.3-1.301,6.3
	s-3.699,0.101-4.899,4.7c-0.4,1.4-1.3,5.5-2.4,10.4l-0.3-0.101h-97.7c0,0-230.699-3.8-243.5-3.8
	c-12.899,0-43.899-5.399-43.899-5.399S94,448.1,75.6,443.5c0,0,1.3-3.9-0.5-5c-1.7-1-7.899-2.9-14.6-6c-6.8-3.3-13.5-9.6-17.5-15.2
	c-2.4-5-4.5-10.7-6.2-17.2c-5.4-21.5-6.7-50.699-6.8-51.8c-0.5-5.399,2.6-7.8,2.6-7.8H32.7c0-0.3,0-0.5,0-0.5l-1.4-49.9V285.4
	l1.4-49.8c0,0,0-0.2,0-0.4H32.6c0,0-3.1-2.6-2.6-8c0.1-1.1,1.399-30.1,6.8-51.6c1.7-6.6,3.7-12.3,6.2-17.3c4-5.6,10.7-11.9,17.5-15
	c6.7-3.3,12.899-5.1,14.6-6.2c1.8-0.9,0.5-5,0.5-5c18.4-4.7,44.9-8.4,44.9-8.4s31-5.3,43.899-5.3c12.9,0,90.801-2,96.9-2
	c6.2,0,146.6-2,146.6-2H506c1.1,5,2,9.1,2.399,10.5c1.2,4.4,4.9,4.7,4.9,4.7s-2.2,5.9,1.3,6.2c0.9,0.1,2,0.2,3,0.2
	c-3,0.4-5.2,0.1-5.2-2.8c0,0-2.7,3.4-4.7,7.4l1-2.6c0,0-77.8,0.4-120,0.4c-0.1,0-0.3,0-0.3,0s1.4,0-1.399-1.6
	c-2.801-1.7-15.7-1.7-20.601-1.7c-4.8,0-4.3,2.9-4.3,2.9c-6-0.6-104,2.1-127.7,2.9c-3.199,0-5,0-5,0c-0.1,0-0.399,0-0.8,0
	c-4.2-0.3-25.7,0.6-31.3,0.9c-5.9,0.1-12.4,3-12.4,3c8.601,7.1,31.9,12.8,31.9,12.8c14.4,5.1,27.3,8.9,39.4,11.7
	c1.5,0.3,3,0.6,4.5,0.9c34,7.7,60.999,7.7,92.8,7.8l17.6-0.6c0,0,56.1-3.8,75.8-9.8s58.8-22.6,58.8-22.6l0,0
	c0.601-0.2,20.601-8,23.9-10.8l-4.4-1.8l-1.899-3.2c0.6-0.7,0.1-1.6,0.1-1.6c-1.1-5-2.2-9.4-3.399-13.2h60c0,0,128-0.5,151.5,7.2
	c0,0,4.199,3.8,4,5.8c-2.7-0.5-4.7-0.6-5.9-0.5l0.3,0.3c0,0-0.6,2.9,11.3,10.8c7.2,4.8,12.3,8.8,16.4,13.9c2.8,3.4,5.1,7.3,7.4,12.1
	c5.5,12.2,8.8,15,19.6,67.7c0,0,5.6-6.6,4.3-14.8c0.6,3.7,5.8,33.9,5.5,35.8l-3.9-1.7l-0.1,0.2c0,0,0.9,25.3,0.9,35.5v2
	c0,10.2-0.9,35.7-0.9,35.7v0.1l4-1.7c0,0-3.2,32.7-5.5,36.101c1.5-8.4-4.3-15-4.3-15c-10.8,52.5-14,55.399-19.6,67.5
	c-2.2,4.899-4.5,8.699-7.301,12.1c-4.199,5.2-9.3,9.2-16.5,14.1c-12,7.801-11.3,10.7-11.3,10.7l-0.3,0.3
	c1.1,0.101,2.9,0.101,5.2-0.3l-3.2,5.601c-23.5,7.8-151.5,7.199-151.5,7.199h-59.9c1.101-3.8,2.301-8.199,3.4-13.199
	c0,0,0.5-0.801-0.1-1.5l1.899-3.101l4.4-1.8c-3.3-2.8-23.3-10.7-23.9-11l0,0c0,0-39.3-16.5-59-22.5s-75.8-9.8-75.8-9.8
	l-17.601-0.601c-31.8,0.2-58.799,0.301-92.8,7.801c-1.5,0.3-3,0.6-4.5,0.899c-12.1,2.8-25,6.8-39.399,11.7c0,0-23.3,5.7-31.9,12.8
	c0,0,6.4,2.9,12.4,3.2c5.5,0.2,27,1,31.3,0.9c0.4-0.2,0.601-0.2,0.8-0.2C229.3,434.8,231,434.8,234.3,434.9z M230.7,124.3
	c0,1.2,0.8,2.1,1.8,2.1h27.7c1,0,1.8-0.9,1.8-2.1c0-1.4-0.8-2.3-1.8-2.3h-27.7c-0.5,0-1,0.2-1.3,0.6
	C230.9,123,230.7,123.6,230.7,124.3z"/>
<path fill="#FFFFFF" stroke="#000000" stroke-miterlimit="10" d="M228.5,434.9c7.899-6.9,13.3-7.301,27.7-28.601
	c1.5-0.3,3-0.6,4.5-0.899C257.1,410.8,248.6,422.6,234.3,434.9c-3.2-0.2-5-0.2-5-0.2C229.1,434.8,228.9,434.8,228.5,434.9z"/>
<path fill="#FFFFFF" stroke="#000000" stroke-miterlimit="10" d="M163.6,132.7c0,0,0.4,2.3-8,3.5c-8.399,1.1-14,0.5-14,0.5
	s-4.5-0.8-4.5-4.1c0-3.2-0.1-3.8,0.3-4.8c0.5-0.9,9-3.2,21.101-3.3c0,0,5.1-0.1,5.1,2.7C163.6,130,163.6,132.7,163.6,132.7z"/>
<path fill="#FFFFFF" stroke="#000000" stroke-miterlimit="10" d="M75.4,132.4c0,0,1.301,4.1-0.5,5c-1.699,1.1-7.899,2.9-14.6,6.2
	c-6.8,3.2-13.5,9.5-17.5,15c4.8-10.1,10.9-17,17.6-21.1C63.6,135.8,69,134,75.4,132.4z"/>
<path fill="#FFFFFF" stroke="#000000" stroke-miterlimit="10" d="M74.9,438.7c1.801,1,0.5,5,0.5,5C69,442,63.6,440.2,60.5,438.6
	c-6.7-4.1-12.9-11-17.601-21.1c4,5.6,10.7,11.9,17.5,15.2C67.1,435.8,73.2,437.6,74.9,438.7z"/>
<path fill="#FFFFFF" stroke="#000000" stroke-miterlimit="10" d="M42.9,417.5c4.801,10.1,10.9,17,17.601,21.1
	c3.1,1.7,8.5,3.5,14.899,5.101c18.4,4.7,44.9,8.399,44.9,8.399c-4,1.7-8.1,1.7-8.1,1.7S75.9,449.3,55.6,443.4
	c-20.5-6-26.6-24.2-26.6-24.2C13.7,381.4,13.7,194.9,29,157c0,0,6.2-18.2,26.6-24.1c20.3-6,56.601-10.4,56.601-10.4s4.1,0,8.1,1.5
	c0,0-26.5,3.8-44.9,8.4c-6.399,1.7-11.8,3.5-14.899,5.1c-6.7,4.1-12.9,11-17.601,21.1c-2.399,5-4.5,10.7-6.199,17.3
	c-5.4,21.5-6.7,50.5-6.801,51.6c-0.5,5.4,2.601,8,2.601,8h0.1c0,0.3,0,0.4,0,0.4L31.2,285.7v4.7L32.6,340.3c0,0,0,0.2,0,0.5h-0.1
	c0,0-3.101,2.4-2.601,7.8C30,349.7,31.3,378.8,36.7,400.4C38.4,406.8,40.4,412.5,42.9,417.5z"/>
<g>
	<path d="M593.699,173.3c14.801,2.6,29.601,5.5,44.4,8.5s29.5,6.2,44.2,9.6s29.3,7.1,43.8,11.3c7.2,2.1,14.4,4.4,21.5,7
		c3.5,1.3,7,2.7,10.5,4.2c3.4,1.6,6.8,3.3,9.9,5.5c-3.101-2.2-6.5-3.9-9.9-5.4s-7-2.9-10.5-4.2c-7.1-2.5-14.3-4.8-21.5-6.8
		c-14.5-4.1-29.1-7.7-43.8-11.1c-14.7-3.3-29.4-6.4-44.2-9.3s-29.6-5.7-44.4-8.3V173.3z"/>
</g>
<path fill="none" stroke="#000000" stroke-width="0.5" stroke-linejoin="round" stroke-miterlimit="2.4142" d="M573.3,143.5
	c0,0,128-1.2,178.3,9l16.5-0.6"/>
<path fill="none" stroke="#000000" stroke-width="0.5" stroke-linejoin="round" stroke-miterlimit="2.4142" d="M36,178.6
	c0,0,13.399-5.3,35.8-5.9c22.3-0.6,43.9-0.6,43.9-0.6"/>
<path fill="none" stroke="#000000" stroke-linejoin="round" stroke-miterlimit="2.4142" d="M784.6,232.1c0,0,1.4,16.7,5.3,19
	c3.9,2.4,3.9,1.7,3.9,1.7"/>
<path fill="none" stroke="#000000" stroke-width="0.5" stroke-linejoin="round" stroke-miterlimit="2.4142" d="M378.8,114.9v3
	c0,0-4.9,3.6-4.9,17.9c0,0-12.7,29.9-13.1,42.3"/>
<g>
	<path d="M593.6,401.8c14.8-2.5,29.7-5.3,44.4-8.2c14.8-2.899,29.5-6,44.199-9.3C696.9,381,711.5,377.4,726,373.2
		c7.199-2.101,14.399-4.3,21.5-6.9c3.5-1.3,7.1-2.6,10.5-4.2c3.399-1.6,6.8-3.199,9.899-5.399c-3,2.2-6.399,3.899-9.899,5.5
		c-3.4,1.6-6.9,2.899-10.5,4.3c-7.101,2.6-14.301,4.9-21.5,7c-14.5,4.2-29.101,7.9-43.801,11.3C667.5,388.2,652.8,391.4,638,394.4
		c-14.801,3-29.601,5.8-44.4,8.5V401.8z"/>
</g>
<path fill="none" stroke="#000000" stroke-width="0.5" stroke-linejoin="round" stroke-miterlimit="2.4142" d="M573.3,432.5
	c0,0,128,1.2,178.3-9l16.5,0.6"/>
<path fill="none" stroke="#000000" stroke-width="0.25" stroke-linejoin="round" stroke-miterlimit="2.4142" d="M138,134.4
	c-7,0.7-14.101,1.5-21.101,2.3C83.7,140.8,55,143.9,45.2,160"/>
<path fill="none" stroke="#000000" stroke-width="0.25" stroke-linejoin="round" stroke-miterlimit="2.4142" d="M507.3,125.6
	c-101.9-0.6-274.7,2.7-287.2,3.7c-5.6,0.4-28.6,1-56.399,2.9"/>
<path fill="none" stroke="#000000" stroke-width="0.25" stroke-linejoin="round" stroke-miterlimit="2.4142" d="M523.3,450.2
	c13.7-0.101,25.5-0.4,34.899-0.7c77.101-2.7,174.5,5.7,199.301-33.4c24.699-39.1,22.899-128,22.899-128s1.8-89.1-22.899-128.2
	c-24.7-39.1-122.2-30.5-199.301-33.4c-9.5-0.4-21.699-0.6-35.6-0.7"/>
<path fill="none" stroke="#000000" stroke-width="0.25" stroke-linejoin="round" stroke-miterlimit="2.4142" d="M45.2,416
	c9.8,16.1,38.5,19.3,71.699,23.5c44.9,5.6,94.601,6.6,103.2,7.4c12.601,0.899,186.8,4.199,288.6,3.6"/>
<path fill="none" stroke="#000000" stroke-width="0.5" stroke-linejoin="round" stroke-miterlimit="2.4142" d="M36,397.6
	c0,0,13.399,5.101,35.8,5.9c22.3,0.6,43.9,0.6,43.9,0.6"/>
<path fill="none" stroke="#000000" stroke-linejoin="round" stroke-miterlimit="2.4142" d="M784.6,344c0,0,1.4-16.8,5.3-19.1
	c3.9-2.301,3.9-1.7,3.9-1.7"/>
<path fill="none" stroke="#000000" stroke-width="0.5" stroke-linejoin="round" stroke-miterlimit="2.4142" d="M378.8,461.2v-3
	c0,0-4.9-3.8-4.9-18.101c0,0-12.7-29.899-13.1-42.3"/>
<path fill="none" stroke="#000000" stroke-width="0.25" stroke-linejoin="round" stroke-miterlimit="2.4142" d="M792.3,323.7
	c0,0,1-17.2,1-34.8v-2c0-17.5-1-34.601-1-34.601"/>
<line fill="none" stroke="#000000" stroke-width="0.25" stroke-linejoin="round" stroke-miterlimit="2.4142" x1="534" y1="116" x2="537" y2="136"/>
<line fill="none" stroke="#000000" stroke-width="0.25" stroke-linejoin="round" stroke-miterlimit="2.4142" x1="537" y1="441" x2="538" y2="460"/>
<polyline fill="none" stroke="#000000" stroke-width="0.25" stroke-miterlimit="10" points="223,120 224,129 232,138 "/>
<polyline fill="none" stroke="#000000" stroke-width="0.25" stroke-miterlimit="10" points="221,458 220.1,446.8 232,436 "/>
</svg>
